HIERARCHY
ROOT Hips
{
  OFFSET 13.6774 106.653 -34.4427
  CHANNELS 6 Xposition Yposition Zposition Zrotation Xrotation Yrotation
  JOINT ToSpine
  {
    OFFSET -2.69724 7.43032 -0.144315
    CHANNELS 3 Zrotation Xrotation Yrotation
    JOINT Spine
    {
      OFFSET -0.0310711 10.7595 1.96963
      CHANNELS 3 Zrotation Xrotation Yrotation
      JOINT Spine1
      {
        OFFSET 19.9056 3.91189 0.764692
        CHANNELS 3 Zrotation Xrotation Yrotation
        JOINT Neck
        {
          OFFSET 25.9749 7.03908 -0.130764
          CHANNELS 3 Zrotation Xrotation Yrotation
          JOINT Head
          {
            OFFSET 9.52751 0.295786 -0.907742
            CHANNELS 3 Zrotation Xrotation Yrotation
            End Site
            {
              OFFSET 16.4037 0.713936 2.7358
            }
          }
        }
        JOINT LeftShoulder
        {
          OFFSET 17.7449 4.33886 11.7777
          CHANNELS 3 Zrotation Xrotation Yrotation
          JOINT LeftArm
          {
            OFFSET 0.911315 1.27913 9.80584
            CHANNELS 3 Zrotation Xrotation Yrotation
            JOINT LeftForeArm
            {
              OFFSET 28.6126 1.18197 -3.53199
              CHANNELS 3 Zrotation Xrotation Yrotation
              JOINT LeftHand
              {
                OFFSET 27.5088 0.0218783 0.327423
                CHANNELS 3 Zrotation Xrotation Yrotation
                End Site
                {
                  OFFSET 18.6038 -0.000155887 0.382096
                }
              }
            }
          }
        }
        JOINT RightShoulder
        {
          OFFSET 17.1009 2.89543 -12.2328
          CHANNELS 3 Zrotation Xrotation Yrotation
          JOINT RightArm
          {
            OFFSET 1.4228 0.178766 -10.211
            CHANNELS 3 Zrotation Xrotation Yrotation
            JOINT RightForeArm
            {
              OFFSET 28.733 1.87905 2.64907
              CHANNELS 3 Zrotation Xrotation Yrotation
              JOINT RightHand
              {
                OFFSET 27.4588 0.290562 -0.101845
                CHANNELS 3 Zrotation Xrotation Yrotation
                End Site
                {
                  OFFSET 17.8396 -0.255518 -0.000602873
                }
              }
            }
          }
        }
      }
    }
  }
  JOINT LeftUpLeg
  {
    OFFSET -5.61296 -2.22332 -10.2353
    CHANNELS 3 Zrotation Xrotation Yrotation
    JOINT LeftLeg
    {
      OFFSET 2.56703 -44.7417 -7.93097
      CHANNELS 3 Zrotation Xrotation Yrotation
      JOINT LeftFoot
      {
        OFFSET 3.16933 -46.5642 -3.96578
        CHANNELS 3 Zrotation Xrotation Yrotation
        JOINT LeftToeBase
        {
          OFFSET 0.346054 -6.02161 12.8035
          CHANNELS 3 Zrotation Xrotation Yrotation
          End Site
          {
            OFFSET 0.134235 -1.35082 5.13018
          }
        }
      }
    }
  }
  JOINT RightUpLeg
  {
    OFFSET -5.7928 -1.72406 10.6446
    CHANNELS 3 Zrotation Xrotation Yrotation
    JOINT RightLeg
    {
      OFFSET -2.57161 -44.7178 -7.85259
      CHANNELS 3 Zrotation Xrotation Yrotation
      JOINT RightFoot
      {
        OFFSET -3.10148 -46.5936 -4.03391
        CHANNELS 3 Zrotation Xrotation Yrotation
        JOINT RightToeBase
        {
          OFFSET -0.0828122 -6.13587 12.8035
          CHANNELS 3 Zrotation Xrotation Yrotation
          End Site
          {
            OFFSET -0.131328 -1.35082 5.13018
          }
        }
      }
    }
  }
}
MOTION
Frames: 7
Frame Time: 0.03333333333333333
0.0000 93.1000 0.0000 6.4062 -73.5290 -85.0930 -71.0077 0.4016 87.9925 137.0231 61.4508 -46.9060 -5.6219 19.4389 -0.0830 -146.1586 15.2388 168.5496 -134.3071 48.3343 160.3075 -0.0384 -10.1688 3.0152 -108.3762 13.6916 -106.8748 -8.3417 33.3037 8.9294 16.8397 -0.0028 0.8256 -0.4832 -2.1926 -8.3398 -82.1406 -23.1714 94.2235 17.7395 -3.6129 80.8568 1.2877 -0.6748 7.1899 -3.2501 29.1241 65.6259 -9.1637 69.1416 -3.1773 1.8241 9.9410 -0.0589 -4.5189 0.1782 14.5767 -50.5008 -42.1212 95.6330 1.8573 35.7210 11.0065 -4.3008 -2.4460 -0.2434 1.7951 15.4581 -13.6518 
0.0000 93.1000 0.0000 -20.6365 -72.2533 -116.2886 -71.0030 0.2375 87.9880 137.1483 62.1952 -49.6807 -6.2419 21.7889 -4.0976 -142.2003 13.6241 170.7973 -136.2498 47.5706 166.1459 -0.3673 -8.3175 6.1492 -106.2092 4.1308 -96.7420 -7.9164 23.0318 8.1669 16.7779 -0.0396 1.2122 -0.7510 -1.3913 -8.5763 -83.1247 -19.7080 87.7528 14.2406 -5.4779 72.7846 0.8028 -0.9059 6.5981 -15.9531 37.4449 70.0091 -4.9963 56.3836 -9.7104 -0.6545 10.3657 0.5244 -3.8584 3.1467 15.4735 -35.1414 -40.3917 104.9968 1.8786 48.3269 6.0428 -5.0964 0.4546 -0.3277 1.1776 13.4541 -15.9987 
0.0000 93.1000 0.0000 -33.1962 -70.6502 -130.1349 -71.0009 0.3938 87.9886 135.0941 62.5872 -51.8568 -5.1300 23.3085 -6.3034 -142.2682 12.6750 172.7457 -138.1792 47.6226 170.4152 -1.2345 -6.8410 6.6554 -101.2302 3.9835 -83.7897 -7.1446 12.7532 5.4909 15.8368 0.3456 1.5053 -1.2509 -1.2286 -7.3778 -87.6780 -16.9741 80.5915 14.0699 -7.0512 62.3517 0.7860 -1.3360 5.3760 -31.4241 39.5229 75.4078 -3.5530 43.0677 -12.5531 -3.0134 10.6975 1.6048 -3.8805 2.2536 16.7817 -22.5619 -37.7174 109.4369 8.5589 70.6707 1.1329 -6.5880 -0.4812 -0.1797 3.5996 3.2885 -20.0322 
0.0000 93.1000 0.0000 -27.1817 -70.8826 -125.1703 -71.0044 0.3078 87.9931 132.9197 61.9292 -51.5195 -3.2041 22.1579 -6.7129 -143.0683 12.6829 175.2782 -139.0418 48.0163 173.1965 -0.8345 -5.2083 6.2102 -97.0908 4.2740 -74.8114 -7.3418 9.1057 0.7201 14.8696 0.0560 1.9964 -1.1197 -2.3255 -5.0160 -91.9975 -14.0996 72.9351 13.1237 -10.0255 50.6874 1.5315 -0.8554 5.0315 -36.6831 37.5120 77.3762 -3.6572 37.1178 -12.2160 -3.6363 8.1660 1.6779 -5.0454 1.8884 19.7697 -14.7178 -37.6749 108.2120 125.4279 83.3531 -115.9794 -8.9634 -3.5338 0.3221 7.5524 -5.2210 -18.7311 
0.0000 93.1000 0.0000 -20.8839 -70.8176 -116.1089 -71.0016 0.3944 87.9924 133.8955 60.3922 -50.1166 -2.5456 20.2422 -5.5773 -145.4057 12.9077 176.1061 -139.0547 47.7564 172.9852 -0.2444 -2.6143 3.9885 -93.0505 12.5553 -68.6680 -6.3347 1.3753 -8.3152 13.1526 -0.0921 2.1014 -0.9120 -3.6099 -2.8078 -93.2112 -14.9853 66.2002 9.3416 -8.3583 42.0002 1.5204 -0.5524 4.6629 -34.5813 36.3117 79.1435 -3.0454 38.2011 -13.8519 -3.3462 8.0843 1.4046 -5.5754 -1.3174 22.1731 -11.0276 -35.6125 100.1249 164.9606 67.0480 -151.9104 -9.3997 -6.8773 0.4805 7.4721 -7.7385 -15.8694 
0.0000 93.1000 0.0000 -19.9610 -69.9383 -114.1026 -70.9992 0.5185 87.9952 135.3553 58.1458 -51.3304 -1.7736 18.5957 -4.1021 -149.2397 11.8467 175.1217 -136.0107 45.9534 169.0297 0.2494 -0.3928 -1.5906 -85.1269 23.2885 -67.6367 -5.6103 -13.9856 -19.2777 11.4772 -0.0660 1.5821 -0.6192 -4.6891 0.1031 -91.3607 -20.3782 61.0854 4.9326 -4.1605 37.9863 0.6210 -0.5763 3.9117 -32.7467 33.8170 83.3392 -3.6503 45.0826 -14.3851 -1.3143 5.5278 0.4991 -6.2098 -11.4131 26.1139 -6.3144 -30.9793 89.6277 167.7883 54.9438 -149.9930 -9.6746 -7.8138 0.6933 6.0576 -10.7850 -10.0335 
0.0000 93.1000 0.0000 -20.1197 -70.1171 -115.8591 -71.0015 -0.0825 87.9968 134.9466 56.8230 -54.2527 -1.2560 17.8043 -2.3761 -155.2496 10.9010 173.1758 -135.0587 44.2790 166.9179 0.9422 1.1428 -9.4097 -86.8464 26.8707 -69.6625 -5.8036 -18.7093 -23.9505 10.2273 -0.7069 1.4422 -0.3705 -5.2543 6.2511 -89.4963 -26.2731 61.3164 3.1234 -1.1806 36.2642 0.0646 -0.1010 3.6671 -29.2676 29.7644 86.8839 -5.4054 54.2839 -8.4185 3.0879 2.2049 -0.6669 -6.9834 -21.6436 24.0103 -0.3950 -25.6762 79.0108 167.8260 53.1401 -146.9537 -10.4120 -7.0080 0.4294 7.2133 -15.7190 -7.3443 
